<svg width="697" height="136" viewBox="0 0 697 136" fill="none" xmlns="http://www.w3.org/2000/svg">
<path fill-rule="evenodd" clip-rule="evenodd" d="M70.917 0H135.217V64.1507H118.955V27.7489L82.5536 64.1507L71.0661 52.6632L107.468 15.9631H70.917V0ZM135.217 70.1182H70.917V134.269H87.1784V97.8671L123.58 134.269L135.068 122.781L98.6659 86.0813H135.217V70.1182ZM64.9495 70.1182H0.649655V86.0813H37.2006L0.798843 122.781L12.2863 134.269L48.6881 97.8671V134.269H64.9495V70.1182ZM0.649655 64.449H64.9495V0.298325H48.6881V36.7001L12.2863 0.298325L0.798843 11.7858L37.2006 48.4859H0.649655V64.449Z" fill="#EA110C"/>
<path d="M170.785 134.768V0H190.092V134.768H170.785Z" fill="white"/>
<path d="M207.714 134.768V38.8027H227.021V48.0775H227.4C229.419 45.049 231.816 42.5883 234.592 40.6955C237.495 38.6765 241.154 37.667 245.571 37.667C247.968 37.667 250.366 38.1086 252.763 38.9919C255.161 39.7491 257.306 41.074 259.199 42.9669C261.092 44.8597 262.606 47.3203 263.742 50.3488C264.877 53.2511 265.445 56.8475 265.445 61.1379V134.768H246.139V68.3306C246.139 64.7973 245.318 62.0212 243.678 60.0022C242.038 57.9832 239.703 56.9737 236.675 56.9737C233.015 56.9737 230.491 58.1094 229.103 60.3807C227.715 62.6521 227.021 65.933 227.021 70.2234V134.768H207.714Z" fill="white"/>
<path d="M281.283 38.8027V9.65335H300.59V38.8027H312.514V53.9452H300.59V107.133C300.59 109.405 300.779 111.171 301.157 112.433C301.662 113.695 302.419 114.641 303.429 115.272C304.438 115.903 305.637 116.282 307.025 116.408C308.539 116.534 310.369 116.597 312.514 116.597V134.768H304.564C300.148 134.768 296.425 134.074 293.397 132.686C290.495 131.298 288.16 129.532 286.393 127.386C284.627 125.241 283.302 122.844 282.419 120.194C281.661 117.418 281.283 114.768 281.283 112.244V53.9452H271.629V38.8027H281.283Z" fill="white"/>
<path d="M375.753 94.0728H337.519V107.133C337.519 110.162 338.339 112.496 339.979 114.137C341.746 115.777 344.08 116.597 346.983 116.597C350.642 116.597 353.04 115.525 354.175 113.38C355.437 111.234 356.194 109.089 356.447 106.944H375.753C375.753 115.399 373.167 122.213 367.993 127.386C365.469 130.036 362.441 132.118 358.907 133.633C355.374 135.147 351.399 135.904 346.983 135.904C340.926 135.904 335.752 134.642 331.462 132.118C327.297 129.595 324.08 126.251 321.808 122.086C320.42 119.563 319.474 116.66 318.969 113.38C318.464 110.099 318.212 106.502 318.212 102.59V70.9805C318.212 67.0687 318.464 63.4723 318.969 60.1915C319.474 56.9106 320.42 54.0083 321.808 51.4845C324.08 47.3203 327.297 43.9764 331.462 41.4526C335.752 38.9289 340.926 37.667 346.983 37.667C351.399 37.667 355.374 38.4241 358.907 39.9384C362.567 41.4526 365.658 43.5347 368.182 46.1846C373.23 51.8631 375.753 58.9927 375.753 67.5734V94.0728ZM337.519 78.9303H356.447V67.952C356.447 64.2926 355.563 61.5795 353.797 59.8129C352.156 57.9201 349.885 56.9737 346.983 56.9737C344.08 56.9737 341.746 57.9201 339.979 59.8129C338.339 61.5795 337.519 64.2926 337.519 67.952V78.9303Z" fill="white"/>
<path d="M389.972 134.768V38.8027H409.278V49.0239C413.19 45.4906 417.039 42.7145 420.825 40.6955C424.61 38.6765 429.279 37.667 434.831 37.667V58.1094C432.939 57.3522 430.983 56.9737 428.964 56.9737C426.945 56.9737 424.736 57.3522 422.339 58.1094C420.067 58.7403 417.985 59.876 416.093 61.5164C414.074 63.1569 412.433 65.3021 411.171 67.952C409.909 70.6019 409.278 73.8828 409.278 77.7946V134.768H389.972Z" fill="white"/>
<path d="M442.653 134.768V38.8027H461.959V48.0775H462.338C464.357 45.049 466.754 42.5883 469.531 40.6955C472.433 38.6765 476.092 37.667 480.509 37.667C482.906 37.667 485.304 38.1086 487.702 38.9919C490.099 39.7491 492.244 41.074 494.137 42.9669C496.03 44.8597 497.544 47.3203 498.68 50.3488C499.816 53.2511 500.383 56.8475 500.383 61.1379V134.768H481.077V68.3306C481.077 64.7973 480.256 62.0212 478.616 60.0022C476.976 57.9832 474.641 56.9737 471.613 56.9737C467.953 56.9737 465.429 58.1094 464.041 60.3807C462.653 62.6521 461.959 65.933 461.959 70.2234V134.768H442.653Z" fill="white"/>
<path d="M530.038 134.768V18.171H507.703V0H571.68V18.171H549.345V134.768H530.038Z" fill="white"/>
<path d="M623.261 94.0728H585.026V107.133C585.026 110.162 585.846 112.496 587.487 114.137C589.253 115.777 591.588 116.597 594.49 116.597C598.15 116.597 600.547 115.525 601.683 113.38C602.945 111.234 603.702 109.089 603.954 106.944H623.261C623.261 115.399 620.674 122.213 615.5 127.386C612.977 130.036 609.948 132.118 606.415 133.633C602.882 135.147 598.907 135.904 594.49 135.904C588.433 135.904 583.26 134.642 578.969 132.118C574.805 129.595 571.587 126.251 569.316 122.086C567.928 119.563 566.981 116.66 566.477 113.38C565.972 110.099 565.719 106.502 565.719 102.59V70.9805C565.719 67.0687 565.972 63.4723 566.477 60.1915C566.981 56.9106 567.928 54.0083 569.316 51.4845C571.587 47.3203 574.805 43.9764 578.969 41.4526C583.26 38.9289 588.433 37.667 594.49 37.667C598.907 37.667 602.882 38.4241 606.415 39.9384C610.074 41.4526 613.166 43.5347 615.69 46.1846C620.737 51.8631 623.261 58.9927 623.261 67.5734V94.0728ZM585.026 78.9303H603.954V67.952C603.954 64.2926 603.071 61.5795 601.304 59.8129C599.664 57.9201 597.393 56.9737 594.49 56.9737C591.588 56.9737 589.253 57.9201 587.487 59.8129C585.846 61.5795 585.026 64.2926 585.026 67.952V78.9303Z" fill="white"/>
<path d="M657.922 107.133C657.922 110.162 658.742 112.496 660.382 114.137C662.149 115.777 664.483 116.597 667.386 116.597C671.045 116.597 673.443 115.525 674.578 113.38C675.84 111.234 676.597 109.089 676.85 106.944H696.156C696.156 115.399 693.57 122.213 688.396 127.386C685.872 130.036 682.844 132.118 679.31 133.633C675.777 135.147 671.802 135.904 667.386 135.904C661.329 135.904 656.155 134.642 651.865 132.118C647.7 129.595 644.483 126.251 642.211 122.086C640.823 119.563 639.877 116.66 639.372 113.38C638.867 110.099 638.615 106.502 638.615 102.59V70.9805C638.615 67.0687 638.867 63.4723 639.372 60.1915C639.877 56.9106 640.823 54.0083 642.211 51.4845C644.483 47.3203 647.7 43.9764 651.865 41.4526C656.155 38.9289 661.329 37.667 667.386 37.667C671.802 37.667 675.777 38.4241 679.31 39.9384C682.97 41.4526 686.061 43.5347 688.585 46.1846C693.633 51.8631 696.156 59.2451 696.156 68.3306H676.85C676.85 64.4187 675.966 61.5795 674.2 59.8129C672.559 57.9201 670.288 56.9737 667.386 56.9737C664.483 56.9737 662.149 57.9201 660.382 59.8129C658.742 61.5795 657.922 64.2926 657.922 67.952V107.133Z" fill="white"/>
</svg>
